# xmcd CD database file
#
# Track frame offsets:
#	150
#	15481
#	29348
#	42561
#	56153
#	70504
#	83742
#	95986
#	107544
#	117849
#	132059
#	143561
#	156137
#	168744
#	182260
#	196819
#	210906
#
# Disc length: 2966 seconds
#
# Revision: 3
# Processed by: cddbd v1.5PL3 Copyright (c) Steve Scherf et al.
# Submitted via: CDex 1.51
#
DISCID=db0b9411
DTITLE=Muddy Waters - Blues Legends
DYEAR=1900
DGENRE=Blues
TTITLE0=I Feel Like Going Home
TTITLE1=Little Anna Mea
TTITLE2=Train Fare Home Blues
TTITLE3=Little Geneva
TTITLE4=Rollin' And Tumblin'
TTITLE5=Streamline Woman
TTITLE6=Rolling Stone
TTITLE7=You Gonna Miss Me
TTITLE8=Country Blues
TTITLE9=I Be's Troubled
TTITLE10=Burr Clover Farm Blues
TTITLE11=Take A Walk With Me
TTITLE12=Burr Clover Blues
TTITLE13=Walkin' Blues
TTITLE14=I Can't Be Satisfied
TTITLE15=Gypsy Woman
TTITLE16=Mean Read Spider
EXTD=
EXTT0=
EXTT1=
EXTT2=
EXTT3=
EXTT4=
EXTT5=
EXTT6=
EXTT7=
EXTT8=
EXTT9=
EXTT10=
EXTT11=
EXTT12=
EXTT13=
EXTT14=
EXTT15=
EXTT16=
PLAYORDER=
